<svg id="Calque_1" data-name="Calque 1" xmlns="http://www.w3.org/2000/svg" viewBox="0 0 566.93 566.81">
  <defs>
    <style>
      .cls-1 {
        fill: #fff;
      }

      .cls-1, .cls-2 {
        stroke-width: 0px;
      }

      .cls-2 {
        fill: #0000c8;
      }
    </style>
  </defs>
  <circle class="cls-1" cx="283.46" cy="283.41" r="247.46"></circle>
  <g>
    <path class="cls-2" d="M283.46,0C126.91,0,0,126.89,0,283.41s126.91,283.41,283.46,283.41,283.46-126.89,283.46-283.41S440.02,0,283.46,0ZM283.46,527.11c-134.41,0-243.75-109.33-243.75-243.71S149.06,39.7,283.46,39.7s243.75,109.33,243.75,243.7-109.35,243.71-243.75,243.71Z"></path>
    <polygon class="cls-2" points="437.28 341.65 431.28 341.65 423.74 352.66 421.28 367.05 447.14 367.05 444.75 352.66 437.28 341.65"></polygon>
    <polygon class="cls-2" points="202.08 341.65 196.08 341.65 188.54 352.66 186.08 367.05 211.94 367.05 209.55 352.66 202.08 341.65"></polygon>
    <polygon class="cls-2" points="341.94 341.65 335.93 341.65 328.39 352.66 325.93 367.05 351.79 367.05 349.4 352.66 341.94 341.65"></polygon>
    <polygon class="cls-2" points="253.87 365.9 253.87 380.91 281.66 380.91 285.04 375.98 279.96 365.9 253.87 365.9"></polygon>
    <polygon class="cls-2" points="281.58 346.66 278.11 341.65 253.87 341.65 253.87 355.51 277.12 355.51 281.58 346.66"></polygon>
    <path class="cls-2" d="M283.46,53.94c-126.56,0-229.51,102.94-229.51,229.47s102.96,229.47,229.51,229.47,229.52-102.94,229.52-229.47S410.02,53.94,283.46,53.94ZM150.48,392.12h-33l-14.73-17.89v-25.91l14.73-17.88h32.23l10.33,17.88-10.33,5.94-7.4-12.65h-18.51l-9.1,10.95v17.35l9.1,11.03h19.36l7.32-12.64,10.33,5.94-10.33,17.89ZM216.16,392.12l-2.31-13.88h-29.69l-2.39,13.88h-12.1l7.4-43.95,12.03-17.73h19.82l12.03,17.73,7.4,43.95h-12.19ZM288.83,392.12h-46.5v-61.68h43.1l10.41,15.27-6.09,12.1,9.56,19.12-10.48,15.19ZM356.01,392.12l-2.31-13.88h-29.69l-2.39,13.88h-12.1l7.4-43.95,12.03-17.73h19.82l12.03,17.73,7.4,43.95h-12.19ZM355.8,220.46l-26.53-16.49,11.79,71.52-.54.5c-4.4,4.11-7.9,6.99-14.77,11.38l-1.74,1.11-17.36-99.18-23.07-21.84-23.07,21.84-17.36,99.18-1.74-1.11c-6.87-4.38-10.36-7.27-14.77-11.38l-.54-.5,11.79-71.52-26.54,16.49-8.67-10.91,65.94-54.14-12.13-15.39,10.45-10.3,16.65,13.04,16.64-13.04,10.45,10.3-12.14,15.39,65.94,54.14-8.67,10.91ZM392.83,392.12h-11.95v-61.68h11.95v61.68ZM451.53,392.12l-2.31-13.88h-29.69l-2.39,13.88h-12.1l7.4-43.95,12.03-17.73h19.82l12.03,17.73,7.4,43.95h-12.19Z"></path>
  </g>
</svg>